HIERARCHY
ROOT Hips
{
	OFFSET 0.00000 0.00000 0.00000
	CHANNELS 6 Xposition Yposition Zposition Zrotation Yrotation Xrotation 
	JOINT LHipJoint
	{
		OFFSET 0 0 0
		CHANNELS 3 Zrotation Yrotation Xrotation
		JOINT LeftUpLeg
		{
			OFFSET 1.41261 -1.82971 0.84908
			CHANNELS 3 Zrotation Yrotation Xrotation
			JOINT LeftLeg
			{
				OFFSET 2.52554 -6.93888 0.00000
				CHANNELS 3 Zrotation Yrotation Xrotation
				JOINT LeftFoot
				{
					OFFSET 2.56654 -7.05152 0.00000
					CHANNELS 3 Zrotation Yrotation Xrotation
					JOINT LeftToeBase
					{
						OFFSET 0.21698 -0.59616 1.85369
						CHANNELS 3 Zrotation Yrotation Xrotation
						End Site
						{
							OFFSET 0.00000 -0.00000 0.97832
						}
					}
				}
			}
		}
	}
	JOINT RHipJoint
	{
		OFFSET 0 0 0
		CHANNELS 3 Zrotation Yrotation Xrotation
		JOINT RightUpLeg
		{
			OFFSET -1.12808 -1.82971 0.84907
			CHANNELS 3 Zrotation Yrotation Xrotation
			JOINT RightLeg
			{
				OFFSET -2.53425 -6.96280 0.00000
				CHANNELS 3 Zrotation Yrotation Xrotation
				JOINT RightFoot
				{
					OFFSET -2.58413 -7.09983 0.00000
					CHANNELS 3 Zrotation Yrotation Xrotation
					JOINT RightToeBase
					{
						OFFSET -0.26437 -0.72636 1.92241
						CHANNELS 3 Zrotation Yrotation Xrotation
						End Site
						{
							OFFSET -0.00000 -0.00000 1.02667
						}
					}
				}
			}
		}
	}
	JOINT LowerBack
	{
		OFFSET 0 0 0
		CHANNELS 3 Zrotation Yrotation Xrotation
		JOINT Spine
		{
			OFFSET -0.02096 2.02288 -0.14752
			CHANNELS 3 Zrotation Yrotation Xrotation
			JOINT Spine1
			{
				OFFSET 0.03477 2.03136 -0.02358
				CHANNELS 3 Zrotation Yrotation Xrotation
				JOINT Neck
				{
					OFFSET 0 0 0
					CHANNELS 3 Zrotation Yrotation Xrotation
					JOINT Neck1
					{
						OFFSET 0.00174 1.74359 0.19336
						CHANNELS 3 Zrotation Yrotation Xrotation
						JOINT Head
						{
							OFFSET -0.03054 1.76140 -0.17751
							CHANNELS 3 Zrotation Yrotation Xrotation
							End Site
							{
								OFFSET -0.00863 1.77239 -0.08120
							}
						}
					}
				}
				JOINT LeftShoulder
				{
					OFFSET 0 0 0
					CHANNELS 3 Zrotation Yrotation Xrotation
					JOINT LeftArm
					{
						OFFSET 3.68685 1.32687 -0.67367
						CHANNELS 3 Zrotation Yrotation Xrotation
						JOINT LeftForeArm
						{
							OFFSET 4.76468 -0.00000 -0.00000
							CHANNELS 3 Zrotation Yrotation Xrotation
							JOINT LeftHand
							{
								OFFSET 3.52712 -0.00000 -0.00000
								CHANNELS 3 Zrotation Yrotation Xrotation
								JOINT LeftFingerBase
								{
									OFFSET 0 0 0
									CHANNELS 3 Zrotation Yrotation Xrotation
									JOINT LeftHandIndex1
									{
										OFFSET 0.85956 -0.00000 -0.00000
										CHANNELS 3 Zrotation Yrotation Xrotation
										End Site
										{
											OFFSET 0.69300 -0.00000 -0.00000
										}
									}
								}
								JOINT LThumb
								{
									OFFSET 0 0 0
									CHANNELS 3 Zrotation Yrotation Xrotation
									End Site
									{
										OFFSET 0.70358 -0.00000 0.70358
									}
								}
							}
						}
					}
				}
				JOINT RightShoulder
				{
					OFFSET 0 0 0
					CHANNELS 3 Zrotation Yrotation Xrotation
					JOINT RightArm
					{
						OFFSET -3.31304 1.28268 -0.97357
						CHANNELS 3 Zrotation Yrotation Xrotation
						JOINT RightForeArm
						{
							OFFSET -4.90577 -0.00000 -0.00000
							CHANNELS 3 Zrotation Yrotation Xrotation
							JOINT RightHand
							{
								OFFSET -3.42692 -0.00000 0.00000
								CHANNELS 3 Zrotation Yrotation Xrotation
								JOINT RightFingerBase
								{
									OFFSET 0 0 0
									CHANNELS 3 Zrotation Yrotation Xrotation
									JOINT RightHandIndex1
									{
										OFFSET -0.74096 -0.00000 -0.00000
										CHANNELS 3 Zrotation Yrotation Xrotation
										End Site
										{
											OFFSET -0.59738 -0.00000 -0.00000
										}
									}
								}
								JOINT RThumb
								{
									OFFSET 0 0 0
									CHANNELS 3 Zrotation Yrotation Xrotation
									End Site
									{
										OFFSET -0.60650 -0.00000 0.60650
									}
								}
							}
						}
					}
				}
			}
		}
	}
}
MOTION
Frames: 15
Frame Time: .0083333
0.0449 17.9566 -32.3292 0 0 0 0 0 0 -21 0 0 0 0 0 0 0 0 0 0 0 0 0 0 21 0 0 0 0 0 0 0 0 0 0 0 0 0 0 0 0 0 0 0 0 0 0 -16 0 0 21 0 0 11 0 0 0 -8 0 0 0 0 0 0 0 0 0 0 0 0 0 0 0 0 0 0 0 0 8 0 0 0 0 0 0 0 0 0 0 0 0 0 0 0 0 0
0.0449 17.9566 -32.3292 -0.3139 -1.8697 0.1741 0.0000 0.0000 0.0000 -14.0563 4.8962 6.4026 0.1528 2.5190 6.9424 0.5305 0.5524 -13.9701 3.9277 -12.0635 -35.9570 0.0000 0.0000 0.0000 10.8598 -2.9933 1.1297 -0.8821 -5.9872 16.7473 -0.7688 -4.1974 -18.6058 -0.7006 -5.3500 14.9097 -4.3934 -0.4128 5.2912 1.1591 -0.7920 -0.3844 3.7329 -0.3068 -3.2923 -6.9645 -5.1857 -8.3466 2.4318 -6.4150 13.5349 1.4072 -3.3090 5.7719 0.0000 0.0000 0.0000 -93.4807 8.7663 5.6174 24.1314 -35.3029 -7.7823 -0.0000 -0.0000 1.0492 6.2903 -11.3163 -1.2391 -7.1250 0.0000 -0.0000 -14.5617 18.7855 9.4044 0.0000 0.0000 0.0000 93.6363 -4.8722 0.5024 -14.3577 23.2437 -2.9678 0.0000 0.0000 3.0099 -12.2463 -37.7865 7.5755 7.1250 -0.0000 -0.0000 29.4300 -66.1468 -15.5949
-0.0173 17.9602 -32.3026 -0.3403 -1.3119 0.0388 0.0000 0.0000 0.0000 -13.9200 4.4046 6.7365 0.1510 2.5043 6.9017 0.5296 0.7755 -14.0502 3.8404 -11.9450 -35.5375 0.0000 0.0000 0.0000 11.0060 -3.5695 1.4347 -0.8558 -5.8996 16.4933 -0.6990 -4.5600 -18.1012 -0.5420 -4.7169 13.1027 -4.3234 -0.4957 5.1608 1.1146 -0.8948 -0.4495 3.6535 -0.3588 -3.2781 -6.9817 -5.2159 -8.1145 2.3174 -6.4554 13.6254 1.3758 -3.3406 5.7600 0.0000 0.0000 0.0000 -93.4722 8.8170 5.4960 24.3657 -35.5486 -7.9182 -0.0000 -0.0000 0.5494 6.5789 -11.7431 -1.3446 -7.1250 0.0000 -0.0000 -14.3341 18.3590 9.3879 0.0000 0.0000 0.0000 93.7602 -4.9001 -1.7560 -13.7027 22.3081 -2.7142 0.0000 0.0000 2.3876 -9.1565 -39.1489 5.8105 7.1250 -0.0000 -0.0000 34.6056 -66.3628 -18.7736
-0.0797 17.9663 -32.2795 -0.4127 -0.8000 -0.0042 0.0000 0.0000 0.0000 -13.7329 3.8736 6.9264 0.1516 2.5092 6.9153 0.5325 0.9757 -14.1715 3.7433 -11.8108 -35.0658 0.0000 0.0000 0.0000 11.2684 -4.0557 1.6148 -0.8377 -5.8384 16.3163 -0.6464 -4.9816 -17.8121 -0.5036 -4.5493 12.6274 -4.2664 -0.5549 4.9870 1.1192 -0.9641 -0.5521 3.6295 -0.3924 -3.2808 -6.9781 -5.2893 -8.0391 2.1492 -6.5402 13.8900 1.3146 -3.3967 5.8291 0.0000 -0.0000 0.0000 -93.5773 8.8473 5.3587 24.5723 -35.7636 -8.0386 -0.0000 0.0000 -0.0504 6.7501 -12.0535 -1.4159 -7.1250 0.0000 -0.0000 -14.1968 18.0497 9.3925 0.0000 -0.0000 0.0000 93.8149 -4.9708 -3.8150 -12.8058 21.0021 -2.3832 0.0000 0.0000 3.6865 -7.9228 -39.8381 5.0946 7.1250 -0.0000 -0.0000 36.9043 -66.5401 -20.3092
-0.1447 17.9741 -32.2595 -0.5368 -0.3494 -0.0290 0.0000 0.0000 0.0000 -13.4121 3.5477 6.9938 0.1547 2.5342 6.9845 0.5292 1.0807 -14.1754 3.7698 -11.8476 -35.1949 0.0000 0.0000 0.0000 11.7059 -4.3077 1.8398 -0.8143 -5.7583 16.0846 -0.6114 -5.4333 -17.7450 -0.5300 -4.6650 12.9554 -4.2064 -0.6398 4.8621 1.1610 -1.0687 -0.6559 3.6456 -0.4426 -3.3084 -7.1160 -5.0905 -7.8454 2.1641 -6.2680 13.9213 1.3685 -3.2726 5.7984 0.0000 -0.0000 0.0000 -93.7708 8.8096 5.0935 24.7425 -35.9396 -8.1383 -0.0000 0.0000 -0.6346 6.9510 -12.0693 -1.4603 -7.1250 0.0000 -0.0000 -14.0583 18.0260 9.3026 0.0000 -0.0000 0.0000 93.7998 -5.0405 -5.7596 -11.5789 19.1702 -1.9618 0.0000 0.0000 7.2661 -8.5145 -38.7715 5.3559 7.1250 -0.0000 -0.0000 34.7334 -65.8759 -18.4692
-0.2088 17.9760 -32.2373 -0.6525 0.0646 -0.1756 0.0000 0.0000 0.0000 -13.0785 3.3722 7.2007 0.1554 2.5398 7.0001 0.5215 1.1782 -14.1182 3.7675 -11.8444 -35.1836 0.0000 0.0000 0.0000 12.2119 -4.3637 2.3444 -0.7832 -5.6501 15.7724 -0.5877 -5.8896 -17.8190 -0.5708 -4.8384 13.4483 -4.1144 -0.6945 4.8375 1.1582 -1.1358 -0.6964 3.5957 -0.4765 -3.3319 -7.0098 -5.0276 -8.4067 1.5480 -6.0671 14.6862 1.1526 -3.2179 6.1054 -0.0000 0.0000 0.0000 -93.8802 8.8259 5.0181 24.9407 -36.1433 -8.2549 -0.0000 0.0000 -1.1773 7.3571 -12.0301 -1.5415 -7.1250 0.0000 -0.0000 -13.7825 18.0470 9.1022 -0.0000 0.0000 0.0000 93.8184 -5.0514 -7.8413 -10.7751 17.9427 -1.7060 0.0000 0.0000 9.5975 -8.1377 -38.9029 5.1314 7.1250 -0.0000 -0.0000 35.3095 -65.8714 -18.8057
-0.2688 17.9766 -32.2189 -0.7584 0.4115 -0.2471 0.0000 0.0000 0.0000 -12.8097 3.1074 7.3402 0.1560 2.5452 7.0149 0.4970 1.4331 -13.9131 3.7987 -11.8876 -35.3354 0.0000 0.0000 0.0000 12.7239 -4.2987 2.7666 -0.7576 -5.5587 15.5093 -0.5639 -6.2781 -17.8539 -0.6249 -5.0586 14.0759 -4.0070 -0.6821 4.7805 1.1373 -1.1120 -0.7569 3.5113 -0.4650 -3.3669 -6.8370 -5.0914 -8.3844 1.3919 -6.1562 14.7018 1.0686 -3.2636 6.0997 -0.0000 0.0000 0.0000 -93.9568 8.8835 5.1845 25.1227 -36.3291 -8.3625 -0.0000 0.0000 -1.6246 7.8540 -12.0326 -1.6472 -7.1250 0.0000 -0.0000 -13.4414 18.0227 8.8710 -0.0000 0.0000 0.0000 93.8257 -5.0674 -10.0945 -10.0677 16.8454 -1.4945 0.0000 0.0000 11.9616 -7.8912 -38.8445 4.9685 7.1250 -0.0000 -0.0000 35.4807 -65.7542 -18.8132
-0.3269 17.9799 -32.2056 -0.8620 0.7543 -0.1963 0.0000 0.0000 0.0000 -12.5420 2.8332 7.2964 0.1586 2.5657 7.0719 0.4641 1.6498 -13.5738 3.9041 -12.0317 -35.8441 0.0000 0.0000 0.0000 13.1767 -4.3324 2.9416 -0.7374 -5.4860 15.3000 -0.5419 -6.5707 -17.8414 -0.6377 -5.1093 14.2205 -3.9014 -0.6771 4.6711 1.1433 -1.0958 -0.8490 3.4558 -0.4565 -3.4038 -6.8739 -5.1717 -8.4877 1.3298 -6.2432 14.8267 1.0433 -3.3130 6.1604 0.0000 -0.0000 0.0000 -94.0919 8.8764 5.2900 25.2134 -36.4213 -8.4163 -0.0000 0.0000 -1.9006 8.0129 -12.1796 -1.7011 -7.1250 0.0000 -0.0000 -13.3243 17.8713 8.8351 0.0000 -0.0000 0.0000 93.6831 -5.0016 -12.4887 -9.3271 15.6803 -1.2871 0.0000 0.0000 14.8815 -7.9468 -38.5802 4.9752 7.1250 -0.0000 -0.0000 35.0525 -65.5607 -18.4074
-0.3813 17.9816 -32.1905 -0.8783 1.0951 -0.2140 0.0000 0.0000 0.0000 -12.3674 2.6921 7.3283 0.1595 2.5729 7.0918 0.4329 1.7677 -13.1979 4.1250 -12.3249 -36.8911 0.0000 0.0000 0.0000 13.4251 -4.5446 3.1726 -0.7131 -5.3969 15.0440 -0.5326 -6.8103 -17.9331 -0.6175 -5.0292 13.9919 -3.8265 -0.6897 4.6110 1.0993 -1.1081 -0.9072 3.3683 -0.4629 -3.4311 -7.1606 -5.1915 -8.2363 1.6342 -6.2933 14.5511 1.1900 -3.3288 6.0515 0.0000 0.0000 0.0000 -94.1742 8.8738 5.3073 25.2486 -36.4570 -8.4372 -0.0000 0.0000 -2.1212 7.8532 -12.3913 -1.6953 -7.1250 0.0000 -0.0000 -13.4223 17.6711 8.9648 0.0000 0.0000 0.0000 93.5194 -4.9442 -14.8113 -8.5801 14.4888 -1.0927 0.0000 0.0000 18.4635 -8.3637 -38.1854 5.1933 7.1250 -0.0000 -0.0000 34.0794 -65.3636 -17.6891
-0.4278 17.9846 -32.1773 -0.9008 1.3536 -0.2524 0.0000 0.0000 0.0000 -12.1939 2.6408 7.4038 0.1565 2.5494 7.0266 0.4111 1.8581 -12.9318 4.2794 -12.5232 -37.6088 0.0000 0.0000 0.0000 13.6044 -4.7963 3.3793 -0.6935 -5.3237 14.8341 -0.5432 -6.8421 -18.0788 -0.5889 -4.9134 13.6617 -3.7138 -0.6796 4.5894 1.0546 -1.0893 -0.9486 3.2572 -0.4548 -3.4662 -7.1990 -5.2363 -8.2291 1.7092 -6.3606 14.5180 1.2145 -3.3576 6.0465 -0.0000 -0.0000 0.0000 -94.3108 8.8210 5.2201 25.1924 -36.4000 -8.4038 -0.0000 0.0000 -2.0325 7.6805 -12.4303 -1.6628 -7.1250 0.0000 -0.0000 -13.5382 17.6408 9.0561 -0.0000 -0.0000 0.0000 93.3430 -4.8586 -16.7425 -8.2116 13.8952 -1.0023 0.0000 0.0000 20.5526 -7.9473 -38.4525 4.9617 7.1250 -0.0000 -0.0000 34.8750 -65.4592 -18.2236
-0.4686 17.9883 -32.1680 -1.1186 1.5327 -0.2722 0.0000 0.0000 0.0000 -11.8208 2.4740 7.5221 0.1514 2.5069 6.9089 0.3965 2.0409 -12.8157 4.2703 -12.5117 -37.5669 0.0000 0.0000 0.0000 13.9981 -5.0014 3.4709 -0.6822 -5.2810 14.7118 -0.5619 -6.7666 -18.2254 -0.5419 -4.7164 13.1015 -3.3870 -0.6546 4.5691 1.0850 -1.0350 -0.9631 3.1003 -0.4338 -3.4787 -7.1959 -5.2609 -8.1864 1.7815 -6.4071 14.3251 1.2361 -3.3727 5.9824 0.0000 0.0000 0.0000 -94.5943 8.6571 4.9560 25.0317 -36.2363 -8.3086 -0.0000 0.0000 -1.4531 7.5840 -12.4188 -1.6401 -7.1250 0.0000 -0.0000 -13.6049 17.6565 9.0985 0.0000 0.0000 0.0000 93.1585 -4.7182 -18.5262 -7.8838 13.3643 -0.9251 0.0000 0.0000 23.0020 -8.0358 -38.4761 5.0199 7.1250 -0.0000 -0.0000 34.8164 -65.5032 -18.2243
-0.5055 17.9907 -32.1603 -1.2440 1.6981 -0.2551 0.0000 0.0000 0.0000 -11.5675 2.2847 7.5665 0.1500 2.4958 6.8779 0.3866 2.1588 -12.7336 4.2733 -12.5155 -37.5807 0.0000 0.0000 0.0000 14.2838 -5.1513 3.5208 -0.6689 -5.2301 14.5660 -0.5651 -6.8038 -18.2906 -0.5076 -4.5668 12.6770 -3.1202 -0.6219 4.5192 1.0788 -0.9747 -0.9843 2.9386 -0.4090 -3.4812 -7.3054 -5.2418 -7.7883 2.0539 -6.4300 13.5947 1.3553 -3.3651 5.6975 0.0000 -0.0000 0.0000 -94.8997 8.5400 4.6341 24.8646 -36.0652 -8.2100 -0.0000 0.0000 -0.8057 7.5521 -12.2783 -1.6150 -7.1250 0.0000 -0.0000 -13.6345 17.7955 9.0765 0.0000 -0.0000 0.0000 92.9688 -4.6308 -19.6647 -7.6707 13.0177 -0.8765 0.0000 0.0000 24.7721 -8.2491 -38.5295 5.1603 7.1250 -0.0000 -0.0000 34.6698 -65.6067 -18.2205
-0.5375 17.9916 -32.1529 -1.1077 1.8643 -0.2324 0.0000 0.0000 0.0000 -11.5888 2.2739 7.5380 0.1494 2.4904 6.8631 0.3800 2.1034 -12.6049 4.3215 -12.5764 -37.8027 0.0000 0.0000 0.0000 14.2418 -5.2870 3.6193 -0.6513 -5.1623 14.3721 -0.5634 -6.8727 -18.3288 -0.4613 -4.3565 12.0818 -3.1205 -0.5950 4.4861 1.0304 -0.9397 -1.0204 2.8859 -0.3911 -3.5032 -7.4737 -5.2545 -7.8909 2.0522 -6.4163 13.6639 1.3791 -3.3668 5.7423 -0.0000 -0.0000 0.0000 -95.2789 8.4507 4.1256 24.6300 -35.8234 -8.0723 -0.0000 0.0000 -0.1623 7.5906 -12.2982 -1.6259 -7.1250 0.0000 -0.0000 -13.6071 17.7742 9.0637 -0.0000 -0.0000 0.0000 92.6766 -4.5560 -20.4023 -7.5570 12.8322 -0.8510 0.0000 0.0000 25.7838 -8.3085 -38.5990 5.2057 7.1250 -0.0000 -0.0000 34.7049 -65.6792 -18.2980
-0.5674 17.9918 -32.1446 -1.0120 1.9855 -0.2535 0.0000 0.0000 0.0000 -11.5467 2.3557 7.5934 0.1445 2.4496 6.7501 0.3744 2.0186 -12.4739 4.3481 -12.6097 -37.9246 0.0000 0.0000 0.0000 14.2300 -5.4290 3.7576 -0.6358 -5.1016 14.1985 -0.5647 -6.8967 -18.3635 -0.4262 -4.1897 11.6109 -3.0990 -0.5773 4.5075 0.9976 -0.9169 -1.0402 2.8389 -0.3796 -3.5382 -7.4413 -5.3277 -8.1204 1.7905 -6.4649 13.9387 1.2787 -3.4085 5.8613 0.0000 0.0000 0.0000 -95.7159 8.2396 3.2737 24.2171 -35.3930 -7.8320 -0.0000 -0.0000 0.5872 7.8338 -12.7041 -1.7331 -7.1250 0.0000 -0.0000 -13.4189 17.3653 9.0553 0.0000 0.0000 0.0000 92.3898 -4.4718 -20.6459 -7.5235 12.7776 -0.8436 0.0000 0.0000 26.2084 -8.3798 -38.7741 5.2707 7.1250 -0.0000 -0.0000 34.8765 -65.8391 -18.5245
-0.5962 17.9934 -32.1380 -1.0615 2.1002 -0.1847 0.0000 0.0000 0.0000 -11.3493 2.3468 7.5518 0.1408 2.4181 6.6625 0.3726 1.9163 -12.3914 4.3636 -12.6291 -37.9955 0.0000 0.0000 0.0000 14.4295 -5.4486 3.7855 -0.6226 -5.0493 14.0493 -0.5487 -7.0146 -18.2840 -0.4581 -4.3417 12.0400 -2.9343 -0.5771 4.4661 0.9678 -0.9072 -1.0926 2.7144 -0.3773 -3.5724 -7.3023 -5.3753 -8.2458 1.6065 -6.5125 14.0854 1.1899 -3.4384 5.9204 0.0000 -0.0000 0.0000 -96.0957 7.9715 2.2278 23.6982 -34.8435 -7.5334 -0.0000 -0.0000 1.3253 8.1949 -12.9798 -1.8526 -7.1250 0.0000 -0.0000 -13.1590 17.0769 8.9555 0.0000 -0.0000 0.0000 92.2059 -4.5001 -19.8841 -7.6789 13.0311 -0.8783 0.0000 0.0000 25.5880 -8.0549 -38.7590 5.0630 7.1250 -0.0000 -0.0000 35.1912 -65.7335 -18.6261
